<svg xmlns="http://www.w3.org/2000/svg" viewBox="0 0 185.81 185.14"><defs><style>.cls-1{isolation:isolate;}.cls-2{fill:#78c4ae;}.cls-3{fill:#63a18f;}.cls-4{fill:#fff;opacity:0.5;}.cls-5{opacity:0.49;mix-blend-mode:overlay;}.cls-6{fill:#ff8594;}.cls-7{fill:#bd5360;}.cls-8{fill:#ffd767;}.cls-9{fill:#ce9e1b;}.cls-10{fill:#488674;}.cls-11{fill:#5da993;}.cls-12{fill:#6fc5ac;}.cls-13{fill:#4e8c7a;}.cls-14{fill:#63af99;}.cls-15{fill:#75cbb2;}.cls-16{fill:#ffecb8;}.cls-17{fill:#e86474;}.cls-18{fill:#ba525e;}.cls-19{fill:#e6ddc3;}.cls-20{fill:#d9ceb2;}.cls-21{fill:#b0a584;}.cls-22{fill:none;stroke:#ff8594;stroke-linecap:round;stroke-linejoin:round;stroke-width:10.76px;}.cls-23{fill:#ffbdc5;}</style></defs><g class="cls-1"><g id="OBJECT"><path class="cls-2" d="M89.31,102.51c-.16-.67,0-1.57.59-1.7.44-.08.86.27,1.2.59l2.37,2.24A15.8,15.8,0,0,1,88.65,94c-.09-.8,0-1.83.78-2,.55-.1,1,.37,1.44.82A44.36,44.36,0,0,1,95,98.38a39,39,0,0,1-2.3-6.78,14.4,14.4,0,0,1,.08-7,5.41,5.41,0,0,1,1.84-2.89C96.34,84,96,87.17,96.91,89.9a26.62,26.62,0,0,1-.16-9,12.5,12.5,0,0,1,4.14-7.53.92.92,0,0,1,.39-.23,1,1,0,0,1,.94.43,3.88,3.88,0,0,1,.39,3.12,37.48,37.48,0,0,1-3.37,10.28,9.6,9.6,0,0,1,5.21-6.11,1.42,1.42,0,0,1,1.17-.12c.62.29.68,1.19.5,1.84a8.93,8.93,0,0,1-2.53,3.71l-5,5.12a15.86,15.86,0,0,1,4-2.28,3.32,3.32,0,0,1,2.14-.26,1.14,1.14,0,0,1,.6.41c.3.46,0,1.06-.26,1.49-1.86,2.73-4.72,4.46-7.5,6.12a11.25,11.25,0,0,1,3.35-1,1.51,1.51,0,0,1,.94.09,1.44,1.44,0,0,1,.45,1.73A4.21,4.21,0,0,1,99.53,100a11.67,11.67,0,0,0-3.43,1.49,10.88,10.88,0,0,1,2.75-1,1.88,1.88,0,0,1,.85,0,1.59,1.59,0,0,1,1,1.69,3.45,3.45,0,0,1-.91,1.79A12.42,12.42,0,0,1,97,106.38c-.69.44-2.08,1.44-2.94,1.33s-2.26-1.54-2.88-2.16A6.38,6.38,0,0,1,89.31,102.51Z"/><path class="cls-3" d="M93,120.18a1.94,1.94,0,0,1-.14.3.62.62,0,0,1-.09.11.42.42,0,0,1-.13.08.28.28,0,0,1-.15,0,.44.44,0,0,1-.15,0,.46.46,0,0,1-.07-.07.18.18,0,0,1,0-.07l0-.08a.23.23,0,0,1,0-.11,2.86,2.86,0,0,1,0-.58c0-.37,0-.72.09-1.08.08-.7.17-1.41.27-2.11.21-1.4.43-2.79.66-4.19.47-2.79,1-5.57,1.52-8.34s1.13-5.54,1.76-8.3,1.28-5.5,2-8.23c-.68,2.74-1.29,5.5-1.87,8.27s-1.11,5.53-1.61,8.31-1,5.57-1.36,8.36c-.21,1.4-.41,2.8-.58,4.19q-.14,1-.24,2.1c0,.35-.06.7-.07,1a3.52,3.52,0,0,0,0,.47s0,0,0,0,0,0,0,0,0,0,0,0a.1.1,0,0,0,0,0,.23.23,0,0,0-.12,0,.42.42,0,0,0-.11,0,.22.22,0,0,0-.08,0h0a1.59,1.59,0,0,0,.08-.18h0a.3.3,0,1,1,.57.2Z"/><path class="cls-4" d="M94.77,84.56a.45.45,0,0,0-.61-.16,1.31,1.31,0,0,0-.47,1.75.36.36,0,0,0,.24.2.56.56,0,0,0,.37.15c.58,0,.62-.57.59-1A1.54,1.54,0,0,0,94.77,84.56Z"/><path class="cls-4" d="M94.54,87.91a.45.45,0,0,0-.61-.16l-.2.1a.45.45,0,0,0-.16.6.45.45,0,0,0,.61.16l.2-.1A.45.45,0,0,0,94.54,87.91Z"/><path class="cls-4" d="M101.14,75.2a.9.9,0,0,0-1,.56,1.75,1.75,0,0,0-.13,1.29.44.44,0,0,0,.44.31.45.45,0,0,0,.62-.15c.22-.37.6-.61.64-1.06A.88.88,0,0,0,101.14,75.2Z"/><path class="cls-4" d="M99.37,78.43a.45.45,0,0,0-.44.44v.2a.44.44,0,0,0,.44.44.45.45,0,0,0,.45-.44v-.2A.45.45,0,0,0,99.37,78.43Z"/><path class="cls-4" d="M90.62,94.2a.72.72,0,0,0-1.05.23,1.51,1.51,0,0,0,.09,1.34.42.42,0,0,0,.48.21l0,.07a.44.44,0,0,0,.63,0A1.2,1.2,0,0,0,90.62,94.2Z"/><path class="cls-4" d="M91.1,98.32a.45.45,0,0,0-.44.44V99a.44.44,0,0,0,.88,0v-.27A.44.44,0,0,0,91.1,98.32Z"/><path class="cls-4" d="M91.71,103.47l-.1-.1A.45.45,0,0,0,91,104l.1.1a.45.45,0,0,0,.63-.63Z"/><path class="cls-5" d="M99.42,102.46a.45.45,0,0,0-.56-.43,2.33,2.33,0,0,0-.58.32,1.65,1.65,0,0,0-.84,1.46.46.46,0,0,0,.35.43.44.44,0,0,0,.41.1,1.64,1.64,0,0,0,1.21-1.75S99.42,102.5,99.42,102.46Z"/><path class="cls-5" d="M96.8,104.62a.47.47,0,0,0-.28.12.43.43,0,0,0-.29.2.46.46,0,0,0,.16.61.57.57,0,0,0,.86-.48A.46.46,0,0,0,96.8,104.62Z"/><path class="cls-5" d="M101.13,97.2a.46.46,0,0,0-.55-.31,1.4,1.4,0,0,0-1.07.87.66.66,0,0,0-.38.6c0,.53.54.7,1,.6A1.42,1.42,0,0,0,101.13,97.2Z"/><path class="cls-5" d="M99.16,99a.45.45,0,0,0-.6-.16l-.8.37a.45.45,0,0,0-.16.61.44.44,0,0,0,.6.15l.8-.36A.45.45,0,0,0,99.16,99Z"/><path class="cls-5" d="M103.07,90.16a1.31,1.31,0,0,0-1,.67,2.34,2.34,0,0,0-1,1.67c0,.36.4.52.67.38a3.45,3.45,0,0,0,1.76-2.16A.44.44,0,0,0,103.07,90.16Z"/><path class="cls-5" d="M100.69,94a.46.46,0,0,0-.55-.31l-.49.11a.45.45,0,0,0-.31.55.46.46,0,0,0,.55.31l.49-.11A.46.46,0,0,0,100.69,94Z"/><path class="cls-5" d="M104.91,82.79a.47.47,0,0,0-.43-.33,1.58,1.58,0,0,0-1.47,1,1,1,0,0,0-.73.8.8.8,0,0,0,.7,1,2.32,2.32,0,0,0,1.46-.85A1.71,1.71,0,0,0,104.91,82.79Z"/><path class="cls-5" d="M102.07,85.88a.46.46,0,0,0-.61.16h0l0,0,0,0-.07,0a.45.45,0,0,0-.31.55.46.46,0,0,0,.55.31,1.09,1.09,0,0,0,.66-.49A.45.45,0,0,0,102.07,85.88Z"/><path class="cls-6" d="M66.93,109.87c-.63-.35-1.21-1.08-.81-1.67a1.77,1.77,0,0,1,1.39-.55l3.53-.32a16.13,16.13,0,0,1-11-2.94c-.67-.49-1.33-1.33-.86-2,.34-.52,1.1-.58,1.73-.58a48.81,48.81,0,0,1,7.36.59,39.31,39.31,0,0,1-6.88-3,13.54,13.54,0,0,1-5.18-5,5.4,5.4,0,0,1-.73-3.52c3.05.23,5.2,2.74,7.93,4a25.09,25.09,0,0,1-6.89-6.27,12.45,12.45,0,0,1-2.41-8.66,1.2,1.2,0,0,1,.14-.48A1.16,1.16,0,0,1,55.34,79,3.76,3.76,0,0,1,58,80.89a35.84,35.84,0,0,1,5.06,10,10,10,0,0,1-.5-8.51,1.7,1.7,0,0,1,.83-1c.69-.29,1.42.29,1.77.9a9.09,9.09,0,0,1,.8,4.66q0,3.8,0,7.61a17.28,17.28,0,0,1,1.4-4.8,3.93,3.93,0,0,1,1.48-1.9,1.2,1.2,0,0,1,.77-.19c.58.08.82.72.92,1.26.59,3.42-.35,6.94-1.28,10.35A12.87,12.87,0,0,1,71,95.81a1.93,1.93,0,0,1,.8-.7,1.45,1.45,0,0,1,1.65.87,4.57,4.57,0,0,1-.41,3.92,13.41,13.41,0,0,0-1.57,3.8,12.58,12.58,0,0,1,1.42-2.9,2.35,2.35,0,0,1,.64-.69,1.65,1.65,0,0,1,2,.42,3.34,3.34,0,0,1,.62,2,12.66,12.66,0,0,1-.35,3.92c-.21.87-.54,2.69-1.3,3.3s-2.92.72-3.87.79A6.72,6.72,0,0,1,66.93,109.87Z"/><path class="cls-7" d="M83.07,119.44a1.33,1.33,0,0,1,.11.32.39.39,0,0,1,0,.13v0s0,.06,0,.09l-.05.09a.57.57,0,0,1-.15.12.38.38,0,0,1-.25,0l-.1,0-.11-.06a3.24,3.24,0,0,1-.46-.42c-.26-.27-.5-.55-.74-.84-.47-.56-.92-1.14-1.37-1.72q-1.33-1.74-2.62-3.5c-1.73-2.35-3.43-4.73-5.07-7.13s-3.26-4.83-4.83-7.28-3.11-4.92-4.58-7.42c1.52,2.47,3.11,4.91,4.72,7.33s3.28,4.82,5,7.19,3.43,4.71,5.2,7q1.32,1.74,2.69,3.45c.46.57.92,1.13,1.39,1.68.24.27.48.55.73.8a2,2,0,0,0,.36.32s0,0,0,0,0,0,0,0a.27.27,0,0,0-.17,0,.24.24,0,0,0-.12.1.17.17,0,0,0,0,.07s0,0,0,.05h0s0,0,0,0a1.14,1.14,0,0,0-.07-.19h0a.32.32,0,0,1,.16-.43.34.34,0,0,1,.45.14Z"/><path class="cls-4" d="M59.43,95.23a1.94,1.94,0,0,0-.26-.94A1,1,0,0,0,59,94a2.23,2.23,0,0,0-1.57-.82c-.34,0-.53.33-.49.59a2.65,2.65,0,0,0,1.75,2,.51.51,0,0,0,.58-.28A.45.45,0,0,0,59.43,95.23Z"/><path class="cls-4" d="M57.14,85.39c-.12-.93-.25-1.87-.46-2.79-.12-.52-.41-1.26-1.14-1.07s-.71,1-.68,1.51a2.9,2.9,0,0,0,.63,1.65,1.66,1.66,0,0,0,.91,1.23A.51.51,0,0,0,57.14,85.39Z"/><path class="cls-4" d="M64.21,104.28c-.07-.48-.67-.88-1.11-1.06a2.77,2.77,0,0,0-1.84-.12.46.46,0,0,0-.08.87.38.38,0,0,0,.12.17,3.21,3.21,0,0,0,1.79.86C63.6,105.07,64.3,104.91,64.21,104.28Z"/><path class="cls-4" d="M68.49,108.65H68.4l-.13,0h0l0,0-.13-.09a.52.52,0,0,0-.67.18.44.44,0,0,0,.15.63,1.69,1.69,0,0,0,.89.26.5.5,0,0,0,.5-.47A.47.47,0,0,0,68.49,108.65Z"/><path class="cls-4" d="M60.2,96.48h0a.5.5,0,0,0-.55,0,.46.46,0,0,0-.19.63l.29.38a.47.47,0,0,0,.54.2.49.49,0,0,0,.37-.44l0-.28A.44.44,0,0,0,60.2,96.48Z"/><path class="cls-4" d="M58.13,87.16a.53.53,0,0,0-.39,0,.54.54,0,0,0-.61.2.44.44,0,0,0,.16.63l.4.27a.54.54,0,0,0,.68-.18A.61.61,0,0,0,58.13,87.16Z"/><path class="cls-4" d="M65.67,105.11a.49.49,0,0,0-.5.46.44.44,0,0,0,.14.33.56.56,0,0,0,.11.2.6.6,0,0,0,1-.34C66.47,105.33,66.07,105.1,65.67,105.11Z"/><path class="cls-4" d="M70.75,109h-.32a.51.51,0,0,0-.51.47.47.47,0,0,0,.48.45h.32a.49.49,0,0,0,.5-.46A.46.46,0,0,0,70.75,109Z"/><path class="cls-5" d="M70.2,89.7a.48.48,0,0,0-.73-.25.57.57,0,0,0-.69.31c-.22.65-.71,2.82.58,2.72S70.37,90.39,70.2,89.7Z"/><path class="cls-5" d="M69.4,94a.51.51,0,0,0-.69,0l-.23.21a.45.45,0,0,0,0,.65.52.52,0,0,0,.69,0l.23-.21A.45.45,0,0,0,69.4,94Z"/><path class="cls-5" d="M73,97.36a.49.49,0,0,0-.5-.32.46.46,0,0,0-.34.06,1.65,1.65,0,0,0-.73.94.92.92,0,0,0,.35,1.09l.1,0a.49.49,0,0,0,.73-.11,1.53,1.53,0,0,0,.16-.31l.14-.21A1.54,1.54,0,0,0,73,97.36Z"/><path class="cls-5" d="M71.82,100.27a.54.54,0,0,0-.68.18l-.22.31a.43.43,0,0,0,.15.62.53.53,0,0,0,.68-.17l.22-.31A.45.45,0,0,0,71.82,100.27Z"/><path class="cls-5" d="M74.19,103a.46.46,0,1,0,0,.92A.46.46,0,1,0,74.19,103Z"/><path class="cls-5" d="M75.54,102.86a1.26,1.26,0,0,0-.47-1,.79.79,0,0,0-1,.23,1.49,1.49,0,0,0-.32,1.11v0a.4.4,0,0,0,0,.38.76.76,0,0,0,.79.91C75.39,104.51,75.62,103.49,75.54,102.86Z"/><path class="cls-5" d="M75.34,105.84l-.23-.16a.52.52,0,0,0-.59.08l-.22.18a.45.45,0,0,0,0,.65.48.48,0,0,0,.56.07.53.53,0,0,0,.65-.19A.45.45,0,0,0,75.34,105.84Z"/><path class="cls-5" d="M64.44,83.24a.51.51,0,0,0-.9.12,3.47,3.47,0,0,0-.06.45A2.81,2.81,0,0,0,63.89,86a.51.51,0,0,0,.89-.12A2.86,2.86,0,0,0,64.44,83.24Z"/><path class="cls-5" d="M65.08,89a.5.5,0,0,0-.66-.15.73.73,0,0,0-.31,1,.5.5,0,0,0,.66.15.48.48,0,0,0,.25-.5A.45.45,0,0,0,65.08,89Z"/><path class="cls-8" d="M80.37,116.18c-.32-.63-.42-1.55.18-1.83a1.57,1.57,0,0,1,1.34.29l2.91,1.67a16.22,16.22,0,0,1-7.13-8.43c-.28-.77-.4-1.83.3-2.15.52-.23,1.14.12,1.63.47a45,45,0,0,1,5.45,4.49,40.62,40.62,0,0,1-3.93-6.21,14.55,14.55,0,0,1-1.61-7,5.5,5.5,0,0,1,1.13-3.33c2.27,1.86,2.73,5.11,4.27,7.62a27.14,27.14,0,0,1-2.35-9,12.93,12.93,0,0,1,2.31-8.52,1,1,0,0,1,.34-.32,1,1,0,0,1,1,.21,4,4,0,0,1,1.14,3,37.87,37.87,0,0,1-.88,11.06,9.88,9.88,0,0,1,3.73-7.35,1.39,1.39,0,0,1,1.13-.41c.69.14,1,1,.95,1.72a9.28,9.28,0,0,1-1.63,4.31L87,102.82a15.55,15.55,0,0,1,3.41-3.22,3.35,3.35,0,0,1,2.08-.78,1.12,1.12,0,0,1,.68.26,1.42,1.42,0,0,1,.11,1.55c-1.19,3.17-3.63,5.59-6,7.92a11.28,11.28,0,0,1,3.09-1.85,1.59,1.59,0,0,1,1-.14,1.49,1.49,0,0,1,.87,1.62,4.37,4.37,0,0,1-2.21,3,11.85,11.85,0,0,0-3.06,2.31,10.69,10.69,0,0,1,2.5-1.64,1.92,1.92,0,0,1,.84-.23,1.63,1.63,0,0,1,1.37,1.45,3.5,3.5,0,0,1-.48,2A12.6,12.6,0,0,1,89,118.19c-.58.6-1.72,1.94-2.61,2s-2.62-1-3.4-1.45A6.72,6.72,0,0,1,80.37,116.18Z"/><path class="cls-9" d="M88.34,132.91a2.29,2.29,0,0,1-.07.34,1.18,1.18,0,0,1-.06.13.55.55,0,0,1-.11.11.37.37,0,0,1-.31,0,.31.31,0,0,1-.15-.11l0-.07a.47.47,0,0,1,0-.1,2.93,2.93,0,0,1-.15-.58c-.07-.37-.12-.73-.17-1.1-.09-.72-.17-1.44-.24-2.17-.13-1.44-.25-2.89-.35-4.34-.21-2.89-.39-5.79-.51-8.69s-.21-5.79-.25-8.69-.05-5.8,0-8.7c0,2.9,0,5.79.14,8.69s.22,5.79.4,8.69.4,5.78.66,8.66c.13,1.45.27,2.89.43,4.33.08.72.17,1.43.28,2.14,0,.36.1.72.18,1.06a2.35,2.35,0,0,0,.12.46s0,0,0,0h0A.32.32,0,0,0,88,133a.42.42,0,0,0-.13,0,.53.53,0,0,0-.11,0,.21.21,0,0,0-.07.07h0s0-.13,0-.2h0a.31.31,0,0,1,.34-.28.3.3,0,0,1,.28.33Z"/><path class="cls-4" d="M85.76,86.47a.6.6,0,0,0-1,0,9.18,9.18,0,0,0-.78,3.14c-.08.68.84.75,1.13.25a.62.62,0,0,0,.45-.27A3.1,3.1,0,0,0,85.76,86.47Z"/><path class="cls-4" d="M82.65,100.77a4.83,4.83,0,0,0-1.17-3c-.5-.59-1.36.26-.86.84l.13.18a16.39,16.39,0,0,0,.77,2.27C81.76,101.64,82.67,101.34,82.65,100.77Z"/><path class="cls-4" d="M81.38,110.8a2.59,2.59,0,0,0-1.95-2.62.61.61,0,0,0-.51,1.07,1.15,1.15,0,0,0,.06.17,7.46,7.46,0,0,0,1.37,1.8A.61.61,0,0,0,81.38,110.8Z"/><path class="cls-4" d="M83.16,116.34l-.51-.14a.6.6,0,0,0-.74.42.62.62,0,0,0,.42.74l.52.14a.62.62,0,0,0,.74-.42A.62.62,0,0,0,83.16,116.34Z"/><path class="cls-4" d="M83.1,112.61a.63.63,0,0,0-.61-.29.56.56,0,0,0-.54.29.67.67,0,0,0,.65,1A.69.69,0,0,0,83.1,112.61Z"/><path class="cls-4" d="M83.16,102.61l-.13,0a.6.6,0,0,0-.74.42.62.62,0,0,0,.42.74l.13,0a.6.6,0,0,0,.74-.42A.62.62,0,0,0,83.16,102.61Z"/><path class="cls-4" d="M84.57,92.32a.61.61,0,0,0-.32,1.17A.61.61,0,0,0,84.57,92.32Z"/><path class="cls-5" d="M90,114.26c0-.09,0-.17,0-.25a.56.56,0,0,0-.48-.58.69.69,0,0,0-.69.11,2.43,2.43,0,0,0-.9,1.85,1.13,1.13,0,0,0,1.46.45A1.74,1.74,0,0,0,90,114.26Z"/><path class="cls-5" d="M90.87,108.75a.53.53,0,0,0-.4-.4.67.67,0,0,0-.5.08,1.35,1.35,0,0,0-.86,1.27.61.61,0,0,0,.9.52l.2-.12A1,1,0,0,0,90.87,108.75Z"/><path class="cls-5" d="M91.9,101.81c.21-.6-.59-.94-1-.58a2.64,2.64,0,0,0-.78,1.11l-.13.1a.7.7,0,0,0,1,1,2,2,0,0,0,.61-1A3.44,3.44,0,0,0,91.9,101.81Z"/><path class="cls-5" d="M89.41,104.59l-.13,0a.6.6,0,0,0-.74.42.62.62,0,0,0,.42.74l.13,0a.6.6,0,0,0,.74-.42A.62.62,0,0,0,89.41,104.59Z"/><path class="cls-5" d="M91.11,93.5c.08-.53-.58-1.07-1-.57,0,0-.06.09-.1.13h0l0,0a2.45,2.45,0,0,0-.37.74c-.22.46-.45.92-.68,1.38-.35.69.69,1.31,1,.61L90.4,95a.54.54,0,0,0,.26-.22l.42-.7A.57.57,0,0,0,91.11,93.5Z"/><path class="cls-5" d="M88.46,97.4a.62.62,0,0,0-.74.42l-.07.26a.6.6,0,0,0,.42.74.62.62,0,0,0,.74-.42l.07-.26A.62.62,0,0,0,88.46,97.4Z"/><path class="cls-10" d="M141.11,82.58a8.67,8.67,0,0,0-3.43,7.08,7.48,7.48,0,0,1-.06,2.27,2.82,2.82,0,0,1-3.47,1.84,4.27,4.27,0,0,0-.91-.26c-1.1-.06-1.61,1.3-1.55,2.36s.33,2.29-.36,3.1c-1,1.13-2.83.5-4.35.58a4,4,0,0,0-3.68,3.28c-.19,1.23.2,2.51,0,3.74a4,4,0,0,1-5.8,2.48,1.54,1.54,0,0,0-.68-.28,1,1,0,0,0-.66.33,4.27,4.27,0,0,0-1.25,3.81,4.1,4.1,0,0,1,.15,1.29c-.16,1-1.27,1.39-2.24,1.49a5.71,5.71,0,0,0-2.81.6l-1.1,1.12-.24-.46a11.55,11.55,0,0,1-1.62-5.16c0-2,1.34-4.05,3.34-4.19.74-.06,1.65.09,2.07-.51a1.56,1.56,0,0,0,.15-1.09,24.18,24.18,0,0,1-.61-3.55c0-1.19.77-2.5,2-2.56.78,0,1.67.41,2.29,0s.48-1.3.32-2a8.31,8.31,0,0,1,.15-5.29c.76-1.61,2.81-2.72,4.47-1.92a4.74,4.74,0,0,0,1.65.76c.93.06,1.59-.88,1.75-1.77a16,16,0,0,1,.37-2.7,3,3,0,0,1,4.47-1.09c.57.46,1,1.15,1.74,1.27a2.05,2.05,0,0,0,1.2-.28c1.52-.79,2.6-2.17,3.94-3.23s3.14-1.75,4.69-1Z"/><path class="cls-11" d="M141,82.54a8.54,8.54,0,0,0-4,2.61c-1.81,2.4-12.69,11.22-14.57,13.1-1.64,1.64-10,12-13.74,18.7a11.55,11.55,0,0,1-1.62-5.16c0-2,1.34-4.05,3.34-4.19.74-.06,1.65.09,2.07-.51a1.56,1.56,0,0,0,.15-1.09,24.18,24.18,0,0,1-.61-3.55c0-1.19.77-2.5,2-2.56.78,0,1.67.41,2.29,0s.48-1.3.32-2a8.31,8.31,0,0,1,.15-5.29c.76-1.61,2.81-2.72,4.47-1.92a4.74,4.74,0,0,0,1.65.76c.93.06,1.59-.88,1.75-1.77a16,16,0,0,1,.37-2.7,3,3,0,0,1,4.47-1.09c.57.46,1,1.15,1.74,1.27a2.05,2.05,0,0,0,1.2-.28c1.52-.79,2.6-2.17,3.94-3.23S139.45,81.84,141,82.54Z"/><path class="cls-12" d="M106,123A72.61,72.61,0,0,1,111.3,112a61.84,61.84,0,0,1,7-9.89,102,102,0,0,1,8.88-8.28c3.07-2.63,6.19-5.2,9.15-8-2.88,2.83-5.93,5.49-8.93,8.2a102.64,102.64,0,0,0-8.6,8.47,61,61,0,0,0-6.7,9.94,73.29,73.29,0,0,0-5,10.9h0a.62.62,0,0,1-.81.37A.64.64,0,0,1,106,123Z"/><path class="cls-4" d="M129.8,87.14a.84.84,0,0,0-.27-.13h0a.87.87,0,0,0-1.3.68.91.91,0,0,0,.25.66.34.34,0,0,0,.22.22l.24,0,.22,0,.06,0a.44.44,0,0,0,.58-.23c0-.05,0-.1.05-.15A.8.8,0,0,0,129.8,87.14Z"/><path class="cls-4" d="M131.36,88.15a.44.44,0,0,0-.57-.25l-.13.06a.44.44,0,0,0-.25.57.44.44,0,0,0,.57.25l.13,0A.46.46,0,0,0,131.36,88.15Z"/><path class="cls-4" d="M121.58,92a.89.89,0,0,0-.92-.69,1,1,0,0,0-.43,0c-.52.1-.7.81-.53,1.24l0,0a.93.93,0,0,0,.1.26.88.88,0,0,0,1.24.28.8.8,0,0,0,.23-.22A.94.94,0,0,0,121.58,92Z"/><path class="cls-4" d="M123.15,92.88a.55.55,0,0,0-.31-.54.39.39,0,0,0-.3,0,.4.4,0,0,0-.34,0,.45.45,0,0,0-.26.57,1,1,0,0,0,.39.45.58.58,0,0,0,.57,0A.63.63,0,0,0,123.15,92.88Z"/><path class="cls-4" d="M115.55,100.9a1,1,0,0,0-1.4.1.47.47,0,0,0,0,.54,1.17,1.17,0,0,0,.59.46.46.46,0,0,0,.53-.16.86.86,0,0,0,.37-.31A.48.48,0,0,0,115.55,100.9Z"/><path class="cls-4" d="M117.09,100.78l-.18-.08a.45.45,0,0,0-.58.23.46.46,0,0,0,.22.59l.18.08a.45.45,0,1,0,.36-.82Z"/><path class="cls-5" d="M136.2,91.39a1,1,0,0,0-1-.27.83.83,0,0,0-.16.09.64.64,0,0,0-.13,1.25.85.85,0,0,0,.54.13,1.27,1.27,0,0,0,.78-.52l0,0,0,0A.44.44,0,0,0,136.2,91.39Z"/><path class="cls-5" d="M134,91.72a.43.43,0,0,0-.61-.1l-.18.13a.44.44,0,1,0,.52.72l.18-.13A.45.45,0,0,0,134,91.72Z"/><path class="cls-5" d="M129.84,98.1a.69.69,0,0,0-.48-1,1.48,1.48,0,0,0-1.13,0,.93.93,0,0,0-.54,1c.13.82,1.44.86,1.89.28A.62.62,0,0,0,129.84,98.1Z"/><path class="cls-5" d="M126.9,97.85a.45.45,0,0,0-.62-.1l-.11.07a.45.45,0,0,0-.1.62.45.45,0,0,0,.62.1l.12-.07A.45.45,0,0,0,126.9,97.85Z"/><path class="cls-5" d="M121.25,107.3a.42.42,0,0,0-.57-.48l-.14.07a1.24,1.24,0,0,0-1.13.79v0a1.45,1.45,0,0,0-.12.35.46.46,0,0,0,.1.35c.15.8,1.21.39,1.61,0A1,1,0,0,0,121.25,107.3Z"/><path class="cls-5" d="M118.89,107.19a.45.45,0,0,0-.49-.39l-.22,0a.44.44,0,0,0-.39.49.45.45,0,0,0,.49.39h.22A.46.46,0,0,0,118.89,107.19Z"/><path class="cls-5" d="M113.66,114.1a.42.42,0,0,0-.25-.3.45.45,0,0,0-.58.22l-.15.34a.43.43,0,0,0,.18.55.45.45,0,0,0,.57-.1l.21-.19A.43.43,0,0,0,113.66,114.1Z"/><path class="cls-8" d="M124.1,100.22c.32-.61,1-1.21,1.56-.89a1.53,1.53,0,0,1,.52,1.24l.31,3.25a15.81,15.81,0,0,1,2.71-10.41c.46-.65,1.24-1.34,1.89-1,.47.28.54,1,.54,1.56a45.09,45.09,0,0,1-.53,6.86,39.84,39.84,0,0,1,2.74-6.61,14.36,14.36,0,0,1,4.68-5.21,5.41,5.41,0,0,1,3.29-1c-.21,2.85-2.54,5-3.68,7.68a26.28,26.28,0,0,1,5.83-6.9A12.54,12.54,0,0,1,152,85.92a1.13,1.13,0,0,1,.45.09,1,1,0,0,1,.42.95,3.91,3.91,0,0,1-1.76,2.6,37.43,37.43,0,0,1-9.32,5.5,9.61,9.61,0,0,1,7.95-1.15,1.39,1.39,0,0,1,1,.68c.27.62-.27,1.34-.84,1.71a8.88,8.88,0,0,1-4.34,1.12l-7.11.58a15.33,15.33,0,0,1,4.49.91,3.19,3.19,0,0,1,1.78,1.22,1,1,0,0,1,.17.69c-.07.54-.67.82-1.17,1-3.19.83-6.49.25-9.67-.34a10.94,10.94,0,0,1,3.2,1.43,1.53,1.53,0,0,1,.65.68,1.46,1.46,0,0,1-.81,1.6,4.2,4.2,0,0,1-3.66-.06,11.69,11.69,0,0,0-3.55-1.14,10.37,10.37,0,0,1,2.71,1.08,1.88,1.88,0,0,1,.65.54,1.58,1.58,0,0,1-.39,1.9,3.42,3.42,0,0,1-1.86.74,12.47,12.47,0,0,1-3.66,0c-.82-.13-2.52-.29-3.09-1s-.68-2.64-.75-3.52A6.45,6.45,0,0,1,124.1,100.22Z"/><path class="cls-9" d="M115.23,115.94a1.69,1.69,0,0,1-.3.13.42.42,0,0,1-.14,0,.39.39,0,0,1-.16,0,.29.29,0,0,1-.19-.22.16.16,0,0,1,0-.1.17.17,0,0,1,0-.08.31.31,0,0,1,0-.08.35.35,0,0,1,.06-.09,2.56,2.56,0,0,1,.38-.45c.25-.27.51-.51.77-.75.53-.48,1.06-.94,1.6-1.4,1.08-.92,2.17-1.82,3.26-2.72q3.28-2.69,6.64-5.27c2.24-1.73,4.51-3.42,6.79-5.08s4.6-3.29,6.94-4.86c-2.31,1.62-4.59,3.29-6.85,5s-4.49,3.43-6.69,5.19-4.39,3.56-6.54,5.39c-1.08.91-2.15,1.83-3.2,2.76-.53.47-1.05.94-1.56,1.42-.25.25-.51.49-.74.74a2.85,2.85,0,0,0-.3.36s0,0,0,0,0,0,0,0,0,0,0,0a.13.13,0,0,0,0-.06.27.27,0,0,0-.06-.12.43.43,0,0,0-.09-.06.27.27,0,0,0-.09,0h0l.17-.08h0a.3.3,0,0,1,.41.11.3.3,0,0,1-.11.42Z"/><path class="cls-4" d="M139.2,91.66a1,1,0,0,0-.22-1.21c-.95-.73-1.92.71-1.88,1.55a.47.47,0,0,0,.32.46.51.51,0,0,0,.69.13C138.49,92.29,139,92.13,139.2,91.66Z"/><path class="cls-4" d="M150.2,87.5a.87.87,0,0,0-1.15-.25.85.85,0,0,0-.35.15.44.44,0,0,0-.12.52.45.45,0,0,0,.26.77,1.43,1.43,0,0,0,1.39-.65A.45.45,0,0,0,150.2,87.5Z"/><path class="cls-4" d="M130.15,95.05a.44.44,0,0,0-.68-.15,2.71,2.71,0,0,0-.92,1.24.4.4,0,0,0,.26.54.46.46,0,0,0,.59.26A1.38,1.38,0,0,0,130.15,95.05Z"/><path class="cls-4" d="M125.6,102.78l.06-.33a.54.54,0,1,0-1-.19v0a.59.59,0,0,0-.11.19.53.53,0,0,0,.3.68.44.44,0,0,0,.3,0h.07A.46.46,0,0,0,125.6,102.78Z"/><path class="cls-4" d="M136.81,93.54a.44.44,0,0,0-.51-.35l-.28,0a.46.46,0,0,0-.36.52.47.47,0,0,0,.52.36l.27,0A.46.46,0,0,0,136.81,93.54Z"/><path class="cls-4" d="M128.91,98.37a.45.45,0,0,0-.51-.36l-.14,0a.44.44,0,1,0,.16.87l.14,0A.44.44,0,0,0,128.91,98.37Z"/><path class="cls-4" d="M147.19,88.71c-.46-.33-1,.4-.5.73A.44.44,0,0,0,147.19,88.71Z"/><path class="cls-5" d="M142.07,100.45a3,3,0,0,0-2.08,0,2.42,2.42,0,0,0-1,.34.45.45,0,0,0,0,.82,3.48,3.48,0,0,0,3.13-.38C142.5,101,142.35,100.56,142.07,100.45Z"/><path class="cls-5" d="M137.45,100.53l-.16-.11a.44.44,0,0,0-.61.11.45.45,0,0,0,.11.62l.16.11a.44.44,0,1,0,.5-.73Z"/><path class="cls-5" d="M144.66,96.68a.46.46,0,0,0-.41-.48h-.36a.44.44,0,1,0-.06.88h.35A.46.46,0,0,0,144.66,96.68Z"/><path class="cls-5" d="M136.34,104.26a1.33,1.33,0,0,0-.78-.52,2.75,2.75,0,0,0-.49-.14.41.41,0,0,0-.38-.32c-.62,0-1.35.36-1,1.07a1.78,1.78,0,0,0,1.53.89C135.73,105.26,136.69,105,136.34,104.26Z"/><path class="cls-5" d="M133.23,103.73a.44.44,0,0,0-.27-.56l-.3-.08a.44.44,0,0,0-.29.83l.3.08A.44.44,0,0,0,133.23,103.73Z"/><path class="cls-5" d="M130.68,107a.4.4,0,0,0,.09-.22.45.45,0,0,0-.41-.48,13.5,13.5,0,0,0-2,.25.44.44,0,0,0-.07.85,3.18,3.18,0,0,0,2,.14A.49.49,0,0,0,130.68,107Z"/><path class="cls-13" d="M74.33,78.36a7.59,7.59,0,0,0,3.73,6.23,7.19,7.19,0,0,1,1.78,1.19,2.57,2.57,0,0,1-.47,3.64,4.08,4.08,0,0,0-.71.58c-.67.82.13,1.91,1,2.4s2,.89,2.28,1.84c.37,1.31-1.18,2.45-2,3.68a3.57,3.57,0,0,0,.56,4.52c.88.77,2.12,1.11,3,1.9,1.67,1.55,1,4.73-1.25,5.78a1.36,1.36,0,0,0-.6.39.92.92,0,0,0-.1.67,3.77,3.77,0,0,0,2.34,2.9,3.68,3.68,0,0,1,1.11.53c.66.61.4,1.69-.06,2.5a5.36,5.36,0,0,0-1.09,2.49l.28,1.43-.5,0a11.19,11.19,0,0,1-5-1.34c-1.56-1-2.47-3.08-1.48-4.71.37-.61,1-1.25.75-1.87a1.42,1.42,0,0,0-.78-.66A23.47,23.47,0,0,1,74,111.08a2.16,2.16,0,0,1-.94-2.84c.4-.63,1.26-1.09,1.25-1.8s-.78-1-1.44-1.26a7.73,7.73,0,0,1-4.13-2.79,3.25,3.25,0,0,1,1-4.45,4.9,4.9,0,0,0,1.52-.9,1.7,1.7,0,0,0-.44-2.26,14.74,14.74,0,0,1-1.94-1.64c-1-1.32-.08-3.51,1.62-4,.68-.21,1.49-.22,2-.72a1.85,1.85,0,0,0,.44-1.07c.22-1.58-.28-3.13-.37-4.7a4.48,4.48,0,0,1,1.77-4.19Z"/><path class="cls-14" d="M74.23,78.42a7.64,7.64,0,0,0-.17,4.47c.9,2.61,1.88,15.55,2.33,18,.4,2.11,4,13.89,7.26,20.14a11.19,11.19,0,0,1-5-1.34c-1.56-1-2.47-3.08-1.48-4.71.37-.61,1-1.25.75-1.87a1.42,1.42,0,0,0-.78-.66A23.47,23.47,0,0,1,74,111.08a2.16,2.16,0,0,1-.94-2.84c.4-.63,1.26-1.09,1.25-1.8s-.78-1-1.44-1.26a7.73,7.73,0,0,1-4.13-2.79,3.25,3.25,0,0,1,1-4.45,4.9,4.9,0,0,0,1.52-.9,1.7,1.7,0,0,0-.44-2.26,14.74,14.74,0,0,1-1.94-1.64c-1-1.32-.08-3.51,1.62-4,.68-.21,1.49-.22,2-.72a1.85,1.85,0,0,0,.44-1.07c.22-1.58-.28-3.13-.37-4.7A4.48,4.48,0,0,1,74.23,78.42Z"/><path class="cls-15" d="M87,126.09a65.32,65.32,0,0,1-5.76-9.66,54.21,54.21,0,0,1-4-10.47,90.62,90.62,0,0,1-1.66-11.1c-.38-3.72-.7-7.45-1.25-11.14.66,3.67,1.08,7.39,1.57,11.09a90.86,90.86,0,0,0,2,11A52.66,52.66,0,0,0,82.05,116,62.93,62.93,0,0,0,88,125.38h0a.57.57,0,0,1-.16.81.63.63,0,0,1-.86-.09Z"/><path class="cls-4" d="M70.58,91.18l0,0a.39.39,0,0,0-.1-.54.94.94,0,0,0-.15-.06.71.71,0,0,0-.65-.05.75.75,0,0,0-.47.54.69.69,0,0,0,1,.74A.62.62,0,0,0,70.58,91.18Z"/><path class="cls-4" d="M72.62,90l-.09-.09a.29.29,0,0,0-.13-.05.34.34,0,0,0-.4-.16.35.35,0,0,0-.24.4.51.51,0,0,0,.88.33A.35.35,0,0,0,72.62,90Z"/><path class="cls-4" d="M70.75,100.19a.22.22,0,0,0,0-.08.65.65,0,0,0-1-.36.8.8,0,0,0-.13.13.85.85,0,0,0,.09,1.42.6.6,0,0,0,.68-.06.59.59,0,0,0,.36-.25A.72.72,0,0,0,70.75,100.19Z"/><path class="cls-4" d="M72.36,98.62a.36.36,0,0,0-.21-.44.41.41,0,0,0-.22,0,.41.41,0,0,0-.11,0c-.38,0-.45.54-.2.77S72.29,98.94,72.36,98.62Z"/><path class="cls-4" d="M74.87,108.39a.41.41,0,0,0-.27-.41.81.81,0,0,0-1.08.65.52.52,0,0,0,.18.47.59.59,0,0,0,.44.11.73.73,0,0,0,.31-.14l0,0A1.09,1.09,0,0,0,74.87,108.39Z"/><path class="cls-4" d="M75.45,106.42a.41.41,0,0,0-.53.45h0a.37.37,0,0,0,.66.23h0A.4.4,0,0,0,75.45,106.42Z"/><path class="cls-5" d="M80.25,94.11a.94.94,0,0,0-1-.36,1.28,1.28,0,0,0-.85.83.44.44,0,0,0,.19.54h0a.44.44,0,0,0,.61.46,3,3,0,0,0,.87-.38A.8.8,0,0,0,80.25,94.11Z"/><path class="cls-5" d="M79.79,96.33a.47.47,0,0,0-.58.25l-.07.19a.45.45,0,0,0,.25.57.46.46,0,0,0,.58-.25l.07-.18A.45.45,0,0,0,79.79,96.33Z"/><path class="cls-5" d="M79.37,86.79a.47.47,0,0,0-.09-.22.44.44,0,0,0-.62-.08,1,1,0,0,0-.34.77.46.46,0,0,0,.06.23h0a.65.65,0,0,0,1,.21A.59.59,0,0,0,79.37,86.79Z"/><path class="cls-5" d="M78.37,88.3a.48.48,0,0,0-.65.39.44.44,0,0,0,.32.47.44.44,0,0,0,.54-.13A.47.47,0,0,0,78.37,88.3Z"/><path class="cls-5" d="M83.3,106.38a.92.92,0,0,0-.75-.31h-.08a1.12,1.12,0,0,0-1,1.06.75.75,0,0,0,.72.73.93.93,0,0,0,.42.15A1,1,0,0,0,83.3,106.38Z"/><path class="cls-5" d="M82,108.46l-.65-.24A.44.44,0,1,0,81,109l.65.24a.44.44,0,1,0,.33-.82Z"/><path class="cls-5" d="M84.56,115.81a.46.46,0,0,0-.58.25l0,.09a.46.46,0,0,0,.25.58.45.45,0,0,0,.58-.25l0-.09A.45.45,0,0,0,84.56,115.81Z"/><path class="cls-9" d="M34,92.83a8.65,8.65,0,0,1,5.27,5.82,7.86,7.86,0,0,0,.69,2.17,2.84,2.84,0,0,0,3.85.79,3.56,3.56,0,0,1,.8-.5c1-.37,1.91.79,2.15,1.82s.32,2.3,1.21,2.88c1.23.82,2.85-.32,4.33-.66a4,4,0,0,1,4.45,2.11c.53,1.13.51,2.47,1.06,3.58a4,4,0,0,0,6.26.76,1.43,1.43,0,0,1,.58-.46,1,1,0,0,1,.72.13,4.26,4.26,0,0,1,2.27,3.3,4.09,4.09,0,0,0,.21,1.28c.42.86,1.6,1,2.56.81a5.57,5.57,0,0,1,2.87-.21l1.37.76c0-.17.07-.34.1-.51a11.49,11.49,0,0,0,.11-5.4c-.57-1.89-2.42-3.5-4.38-3.09-.72.16-1.56.55-2.12.09a1.52,1.52,0,0,1-.45-1,24.82,24.82,0,0,0-.41-3.58c-.36-1.14-1.44-2.18-2.62-1.9-.76.17-1.48.86-2.2.61s-.82-1.12-.87-1.85a8.32,8.32,0,0,0-1.63-5C59,94.23,56.75,93.74,55.37,95c-.45.41-.79,1-1.37,1.19-.87.32-1.76-.4-2.17-1.21a15.82,15.82,0,0,0-1.1-2.48,3,3,0,0,0-4.6.2c-.41.6-.66,1.4-1.31,1.7a1.92,1.92,0,0,1-1.23.07c-1.68-.32-3.1-1.35-4.68-2s-3.5-.8-4.79.29A.7.7,0,0,0,34,92.83Z"/><path class="cls-8" d="M34.12,92.75a8.62,8.62,0,0,1,4.6,1.38c2.41,1.79,15.31,7.2,17.64,8.48,2,1.12,13,8.71,18.41,14.09a11.49,11.49,0,0,0,.11-5.4c-.57-1.89-2.42-3.5-4.38-3.09-.72.16-1.56.55-2.12.09a1.52,1.52,0,0,1-.45-1,24.82,24.82,0,0,0-.41-3.58c-.36-1.14-1.44-2.18-2.62-1.9-.76.17-1.48.86-2.2.61s-.82-1.12-.87-1.85a8.32,8.32,0,0,0-1.63-5C59,94.23,56.75,93.74,55.37,95c-.45.41-.79,1-1.37,1.19-.87.32-1.76-.4-2.17-1.21a15.82,15.82,0,0,0-1.1-2.48,3,3,0,0,0-4.6.2c-.41.6-.66,1.4-1.31,1.7a1.92,1.92,0,0,1-1.23.07c-1.68-.32-3.1-1.35-4.68-2S35.41,91.66,34.12,92.75Z"/><path class="cls-16" d="M79,121.71a73.41,73.41,0,0,0-8.16-9,62.3,62.3,0,0,0-9.52-7.51,103.69,103.69,0,0,0-10.84-5.46c-3.68-1.66-7.39-3.25-11-5.07,3.55,1.92,7.22,3.61,10.85,5.37A103,103,0,0,1,61,105.75a61.29,61.29,0,0,1,9.21,7.66A73,73,0,0,1,78,122.47h0a.63.63,0,0,0,.88.12.64.64,0,0,0,.15-.88Z"/><path class="cls-5" d="M43,99.93a.86.86,0,0,0-1.39,0,.41.41,0,0,0-.07.34.55.55,0,0,0-.05.34.84.84,0,0,0,.62.59.75.75,0,0,0,.67-.13,3.17,3.17,0,0,0,.44-.12.45.45,0,0,0,.22-.59A1.21,1.21,0,0,0,43,99.93Z"/><path class="cls-5" d="M44.06,99.49a.44.44,0,0,0,.57.68A.44.44,0,0,0,44.06,99.49Z"/><path class="cls-5" d="M51.14,103.21a1.52,1.52,0,0,0-1.17.19c-.55.26-1.78,1.09-1,1.75a1.25,1.25,0,0,0,1.66-.28,1.24,1.24,0,0,0,.85-.77A.72.72,0,0,0,51.14,103.21Z"/><path class="cls-5" d="M52.72,103.18a.56.56,0,0,0-.58.39.46.46,0,0,0,.21.54.55.55,0,0,0,.39.1.52.52,0,0,0,0-1Z"/><path class="cls-5" d="M61,110.19c-.58.5-.48,1.68.4,1.79a1.13,1.13,0,0,0,.92-.43,1,1,0,0,0,.32-.11,1,1,0,0,0,.53-.92C63,109.54,61.52,109.72,61,110.19Z"/><path class="cls-5" d="M64.06,109.55a.46.46,0,0,0-.06.63l.06.07a.46.46,0,0,0,.63.06.46.46,0,0,0,0-.63l-.06-.07A.44.44,0,0,0,64.06,109.55Z"/><path class="cls-17" d="M126.93,77.15l-.11.08a14.69,14.69,0,0,0-3.27,4c-2.27,3.66-4.3,7.46-6.21,11.33-1.54-.21-2.71-.32-2.76-.06s1,.65,2.36.89c-1.67,3.42-3.25,6.9-4.81,10.39a10.24,10.24,0,0,0-.93-.53c-1.56-.81-2.85-1.21-3-1s1,1,2.55,1.73l1,.49-.56,1.25c-.28-.24-.57-.47-.82-.66-.88-.64-1.61-1.08-1.78-.86s.35.94,1.26,1.57a11,11,0,0,0,1,.63c-.57,1.26-1.13,2.52-1.7,3.77a47.41,47.41,0,0,1-2.72,5.31c-.12-.15-.22-.3-.32-.44-1.21-1.69-2-3.08-2.27-3s.29,1.76,1.56,3.48c.16.22.34.45.53.68a15.68,15.68,0,0,1-1,1.33,9.66,9.66,0,0,0-.55-.88c-.77-1.07-1.49-1.79-1.7-1.62s.22,1.1,1,2.12c.22.3.48.64.75,1a13.07,13.07,0,0,1-1.65,1.59,17.67,17.67,0,0,1-2.48,1.63c-.44-1.06-.9-1.76-1.11-1.66s0,1,.34,2.07c-.49.26-1,.51-1.48.75a20.17,20.17,0,0,1-6.8,2.36A4.29,4.29,0,0,1,90,125c-.4-.11-.62-.42-1-1.13-.44-.94-.94-1.91-1.32-2.88.5-.16,1-.32,1.44-.43,1.4-.41,2.54-.53,2.53-.82s-1.27-.5-2.78,0a9,9,0,0,0-1.43.57,13.4,13.4,0,0,1-.11-5.32,49.42,49.42,0,0,1,.85-5l.86.22c1.33.32,2.34.68,2.46.41s-.83-1-2.25-1.26a7.1,7.1,0,0,0-.89-.16q.26-1,.57-2c.56.27,1.11.56,1.58.81,1.62.82,2.81,1.58,3,1.34s-.89-1.3-2.58-2.13a16.68,16.68,0,0,0-1.73-.73q.29-.77.63-1.53a27.76,27.76,0,0,1,6.34-8.37c.26.4.52.79.76,1.12,1.07,1.47,2,2.55,2.21,2.38s-.42-1.46-1.5-2.9c-.26-.35-.57-.75-.89-1.15,1.56-1.42,3.2-2.76,4.84-4.07l1.17-.92c.1.3.2.6.31.85.51,1.2,1.07,2,1.32,1.91s0-1.11-.51-2.25c-.15-.3-.31-.66-.47-1a112.56,112.56,0,0,1,11.29-7.9c.14.54.3,1,.58.93s.45-.53.28-1.11a1.43,1.43,0,0,0-.09-.27A52.22,52.22,0,0,1,126.93,77.15Z"/><path class="cls-18" d="M126.82,77.23a14.69,14.69,0,0,0-3.27,4c-2.27,3.66-4.3,7.46-6.21,11.33-1.54-.21-2.71-.32-2.76-.06s1,.65,2.36.89c-1.67,3.42-3.25,6.9-4.81,10.39a10.24,10.24,0,0,0-.93-.53c-1.56-.81-2.85-1.21-3-1s1,1,2.55,1.73l1,.49-.56,1.25c-.28-.24-.57-.47-.82-.66-.88-.64-1.61-1.08-1.78-.86s.35.94,1.26,1.57a11,11,0,0,0,1,.63c-.57,1.26-1.13,2.52-1.7,3.77a47.41,47.41,0,0,1-2.72,5.31c-.12-.15-.22-.3-.32-.44-1.21-1.69-2-3.08-2.27-3s.29,1.76,1.56,3.48c.16.22.34.45.53.68a15.68,15.68,0,0,1-1,1.33,9.66,9.66,0,0,0-.55-.88c-.77-1.07-1.49-1.79-1.7-1.62s.22,1.1,1,2.12c.22.3.48.64.75,1a13.07,13.07,0,0,1-1.65,1.59,17.67,17.67,0,0,1-2.48,1.63c-.44-1.06-.9-1.76-1.11-1.66s0,1,.34,2.07c-.49.26-1,.51-1.48.75a20.17,20.17,0,0,1-6.8,2.36A4.29,4.29,0,0,1,90,125c3.55-6.57,14.76-26.75,23.12-35.93C120.14,81.33,124.71,78.33,126.82,77.23Z"/><path class="cls-6" d="M88.85,126.51q3.72-6.65,7.54-13.21c2.55-4.38,5.09-8.77,7.76-13.09l1-1.61,1.1-1.56c.71-1.05,1.52-2,2.28-3.05,1.61-2,3.25-3.91,5-5.72a83,83,0,0,1,11.45-10,82.91,82.91,0,0,0-11.27,10.16c-1.74,1.84-3.34,3.8-4.9,5.78-.74,1-1.54,2-2.22,3.07l-1.07,1.57-1,1.61c-2.59,4.35-5,8.78-7.54,13.19s-4.91,8.86-7.32,13.32a.49.49,0,0,1-.67.2.48.48,0,0,1-.2-.66Z"/><path class="cls-6" d="M99.43,108.44a4.21,4.21,0,0,0-.51-2.89,20.33,20.33,0,0,0-1.67-2.65,19.59,19.59,0,0,1,1.89,2.53,6.29,6.29,0,0,1,.66,1.47,3.43,3.43,0,0,1,.11,1.66.25.25,0,1,1-.48-.1Z"/><path class="cls-6" d="M104,100.44a3.74,3.74,0,0,0,0-1.21,12,12,0,0,0-1.07-3.71A11.39,11.39,0,0,1,104,97.9a10.82,10.82,0,0,1,.35,1.27,4.18,4.18,0,0,1,.09,1.38.25.25,0,0,1-.28.21.24.24,0,0,1-.21-.28v0Z"/><path class="cls-6" d="M109.83,92.16l.34-2a8.28,8.28,0,0,0,.09-1,1.78,1.78,0,0,0-.21-1,1.81,1.81,0,0,1,.33,1,7,7,0,0,1,0,1l-.09,2a.25.25,0,1,1-.49,0Z"/><path class="cls-6" d="M95.2,116a11,11,0,0,0-4.2-2.46,11.23,11.23,0,0,1,4.52,2.08.24.24,0,0,1,0,.35.23.23,0,0,1-.34,0Z"/><path class="cls-6" d="M97.26,112.63a10.33,10.33,0,0,1,2.52,1.11,5.72,5.72,0,0,1,2,1.87A5.75,5.75,0,0,0,99.66,114a9.49,9.49,0,0,0-2.51-.83.26.26,0,0,1-.2-.29.25.25,0,0,1,.29-.2Z"/><path class="cls-6" d="M101.4,105.45a6.86,6.86,0,0,1,4.82,1,6.6,6.6,0,0,0-4.72-.56.25.25,0,1,1-.12-.48Z"/><path class="cls-6" d="M106.91,96.4a5.46,5.46,0,0,1,2.52-.32,18,18,0,0,1,2.44.43,16.83,16.83,0,0,0-2.45-.18,5.15,5.15,0,0,0-2.31.52.25.25,0,0,1-.33-.11.24.24,0,0,1,.1-.33Z"/><path class="cls-6" d="M114.21,87.7a14.74,14.74,0,0,1,2-.2,4.59,4.59,0,0,1,2,.38,4.35,4.35,0,0,0-1.93-.13,14.07,14.07,0,0,0-1.9.43A.25.25,0,0,1,114,88a.25.25,0,0,1,.17-.3Z"/><path class="cls-4" d="M96.88,103.63a2.27,2.27,0,0,0-.87-.71.76.76,0,0,0-.57-.15c-.53.08-.68.7-.55,1.16a1.72,1.72,0,0,0,.24.49,1.68,1.68,0,0,0,.92.76,2.39,2.39,0,0,0,.53.42.44.44,0,0,0,.65-.26A2.16,2.16,0,0,0,96.88,103.63Z"/><path class="cls-4" d="M102.9,97.51c-.2-.46-.66-.88-1.17-.56a1.1,1.1,0,0,0-.37,1.2,1.35,1.35,0,0,0,.85.93h0l.08.1a.44.44,0,0,0,.74-.19A2.5,2.5,0,0,0,102.9,97.51Z"/><path class="cls-4" d="M101.35,94.27a.45.45,0,0,0-.75.48l.06.1a.32.32,0,0,0,0,.09.43.43,0,0,0,.11.12,2.42,2.42,0,0,0,.33.31.45.45,0,0,0,.61-.16A.67.67,0,0,0,101.35,94.27Z"/><path class="cls-4" d="M94.71,101.71a.42.42,0,0,0-.47-.09.43.43,0,0,0-.44-.14.44.44,0,0,0-.31.54.75.75,0,0,0,1.22.32A.44.44,0,0,0,94.71,101.71Z"/><path class="cls-4" d="M109.47,89.55a.45.45,0,0,0-.76-.32,1.66,1.66,0,0,0-.53.79.33.33,0,0,0-.17.16,1.23,1.23,0,0,0,0,1.32.45.45,0,0,0,.7.09l.15-.17a.58.58,0,0,0,.31-.42h0A2.39,2.39,0,0,0,109.47,89.55Z"/><path class="cls-4" d="M109.48,87.62a.35.35,0,0,0-.09-.17.41.41,0,0,0-.12-.32.45.45,0,0,0-.63,0,.84.84,0,0,0-.26.57.55.55,0,0,0,.29.51A.55.55,0,0,0,109.48,87.62Z"/><path class="cls-4" d="M95.1,112.23a1.35,1.35,0,0,0-2-.11.92.92,0,0,0,.82,1.42.78.78,0,0,0,.45-.2.67.67,0,0,0,.56-.09A.75.75,0,0,0,95.1,112.23Z"/><path class="cls-4" d="M90,111.41a.46.46,0,0,0-.16.61.49.49,0,0,0,.34.21l.28.2a.45.45,0,0,0,.67-.38A.76.76,0,0,0,90,111.41Z"/><path class="cls-4" d="M114.07,84.15a.66.66,0,0,0-.51-.15h0a.44.44,0,0,0-.34-.17.45.45,0,0,0-.44.45l0,.36a.45.45,0,0,0,.33.42.73.73,0,0,0,.21.22.68.68,0,0,0,1-.18A.76.76,0,0,0,114.07,84.15Z"/><path class="cls-5" d="M99.29,115.76a1,1,0,0,0-.41-.72,1.36,1.36,0,0,0-1.1-.14,1.09,1.09,0,0,0-.26,0,1,1,0,0,0-.68,1c0,.59.59.73,1.08.74a2,2,0,0,0,1-.15l.09,0A.55.55,0,0,0,99.29,115.76Z"/><path class="cls-5" d="M96.14,120.94c0-.44-.51-.72-.88-.85a.94.94,0,0,0-1,.26c-.67.8.57,1.57,1.29,1.51a.68.68,0,0,0,.6-.7A.78.78,0,0,0,96.14,120.94Z"/><path class="cls-5" d="M96.75,121.75h-.1a.45.45,0,0,0-.44.45.44.44,0,0,0,.44.44h.1a.44.44,0,0,0,.44-.44A.45.45,0,0,0,96.75,121.75Z"/><path class="cls-5" d="M101,116.76a.45.45,0,0,0-.63,0l-.09.1a.45.45,0,0,0,0,.63.44.44,0,0,0,.62,0l.1-.1A.45.45,0,0,0,101,116.76Z"/><path class="cls-5" d="M103.41,106.61a1.83,1.83,0,0,0-1.13.12,1.38,1.38,0,0,0-.82.71.62.62,0,0,0,.29.74l.09.07a1.56,1.56,0,0,0,2-.73A.65.65,0,0,0,103.41,106.61Z"/><path class="cls-5" d="M107.81,108.29c-.07-.45-.64-.69-1-.82a3.11,3.11,0,0,0-1.57-.13.53.53,0,0,0-.08.93,1,1,0,0,0,1,.33,1.72,1.72,0,0,0,.89.36C107.47,109,107.88,108.71,107.81,108.29Z"/><path class="cls-5" d="M109.65,97.32a2.47,2.47,0,0,0-2.12.32.43.43,0,0,0-.13.63.7.7,0,0,0,.13.4c.41.57,1.37.43,1.91.12S110.32,97.66,109.65,97.32Z"/><path class="cls-5" d="M112.32,97.61a.77.77,0,0,0-.57-.11.52.52,0,0,0-.41.5.57.57,0,0,0,.26.49.5.5,0,0,0,.61-.07h0a.44.44,0,0,0,.11-.81Z"/><path class="cls-5" d="M116.12,88.77a5.84,5.84,0,0,0-1.89.34c-.52.18-.32,1,.18.87a1.64,1.64,0,0,0,2.44-.36C117.06,89.09,116.6,88.77,116.12,88.77Z"/><path class="cls-5" d="M117.72,89a.45.45,0,0,0,0,.89A.45.45,0,0,0,117.72,89Z"/><path class="cls-5" d="M119.5,84.24h-.1a.44.44,0,1,0,0,.88h.1a.44.44,0,0,0,.44-.44A.45.45,0,0,0,119.5,84.24Z"/><path class="cls-5" d="M100.69,109a.45.45,0,0,0,0,.89A.45.45,0,0,0,100.69,109Z"/><path class="cls-7" d="M13.74,116c.73-.24,12.34-5.8,12.34-5.8L80,121.53l13.3,6.29,48.36-14.27,23.93-1,5.24,2.81-52.63,10L99,129s4.68,2.17,1.29,3.38-11.6,1.94-11.6,1.94l-4.36-1.94L85.63,129,13.74,116"/><path class="cls-19" d="M170.82,115.4a159.56,159.56,0,0,0-31.11,1.94,180.51,180.51,0,0,0-20.62,5.06C108.2,125.64,99,129,99,129l-.4,1.2a13.06,13.06,0,0,1-1.72.45h0l-.59.1c-.32.05-.67.1-1,.14h0l-.49.05-.41,0-.45,0-.63,0H92l-.47,0L91,131l-.47,0-.67-.06-.49,0c-.49,0-1-.1-1.37-.16l-.59-.07c-.92-.12-1.49-.23-1.49-.23l-1.29-2.09a170.58,170.58,0,0,0-16.35-6.2A132,132,0,0,0,47.35,117,158.19,158.19,0,0,0,15,115.4L23,106.94a83.71,83.71,0,0,1,16.19.75c7.41,1,14.75,2.69,22.06,4.4-7.21-2.1-14.44-4.19-21.87-5.6A88.9,88.9,0,0,0,25,104.88L27.69,102s4.51-1.13,26.43,4.83a131.49,131.49,0,0,1,20.36,7.5,133.59,133.59,0,0,1,17.75,9.79l.42.28s-.05-.08.11-.32c.49-.7,2.8-2.75,13.59-7.9l.79-.38C141.27,99.63,156.39,98,156.39,98s.42.52,1.2,1.45q-7.86,1.61-15.5,4a155.8,155.8,0,0,0-21,8.26,157.49,157.49,0,0,1,37.46-11.15l.69.81A190.33,190.33,0,0,0,129.66,110a191.31,191.31,0,0,1,30.21-7.93c.34.39.72.82,1.12,1.26s1,1.09,1.55,1.78a140.7,140.7,0,0,0-30.84,6.05,140.14,140.14,0,0,1,32.22-4.38C167.06,110.59,170.82,115.4,170.82,115.4Z"/><path class="cls-20" d="M119.09,122.4C108.2,125.64,99,129,99,129l-.4,1.2A18.29,18.29,0,0,1,93,131a47.77,47.77,0,0,1-7.09-.65l-1.29-2.09a170.58,170.58,0,0,0-16.35-6.2c2.36-.13,4.65-1,5.81-3a6,6,0,0,0,.43-4.77,129.28,129.28,0,0,1,18.17,10.07s-.72-1.34,13.7-8.22l.79-.38a10.57,10.57,0,0,0,6.32,6A15.44,15.44,0,0,0,119.09,122.4Z"/><path class="cls-21" d="M104.75,118.91c-1.53.53-3,1.11-4.53,1.79a17.11,17.11,0,0,0-4.09,2.58,8.75,8.75,0,0,0-1.6,1.78,6,6,0,0,0-.89,2.19,15.59,15.59,0,0,0-.38,3.79h-.47a17,17,0,0,1,.49-3.88,6.79,6.79,0,0,1,1-2.27,8.8,8.8,0,0,1,1.7-1.8,17.35,17.35,0,0,1,4.2-2.5A47.23,47.23,0,0,1,104.75,118.91Z"/><path class="cls-21" d="M106.1,120a39.53,39.53,0,0,0-4.3,1.69,18.15,18.15,0,0,0-3.92,2.38,11.06,11.06,0,0,0-2.65,3.67,9.66,9.66,0,0,0-.89,3.26l-.45,0a9.72,9.72,0,0,1,1-3.43,11.28,11.28,0,0,1,2.83-3.7,18.3,18.3,0,0,1,4-2.31A42.67,42.67,0,0,1,106.1,120Z"/><path class="cls-21" d="M108.76,121.69c-1.43.45-2.86.9-4.28,1.39a32.87,32.87,0,0,0-4.15,1.71A10.43,10.43,0,0,0,97,127.63a9.83,9.83,0,0,0-1.7,3.29h0l-.49.05a10.12,10.12,0,0,1,1.92-3.55,11,11,0,0,1,3.56-2.82,32.06,32.06,0,0,1,4.21-1.62C105.87,122.52,107.32,122.11,108.76,121.69Z"/><path class="cls-21" d="M112,122.74c-3,1-5.95,1.85-8.8,3.07a18.26,18.26,0,0,0-4,2.27,9.45,9.45,0,0,0-2.28,2.6h0l-.59.1a9.87,9.87,0,0,1,2.65-3,18.8,18.8,0,0,1,4.15-2.21C106,124.43,109,123.62,112,122.74Z"/><path class="cls-21" d="M92,131l-.47,0a8.45,8.45,0,0,0,0-3.21,6.92,6.92,0,0,0-1.46-3.22,12.23,12.23,0,0,0-2.83-2.27A29.19,29.19,0,0,0,84,120.62a30.28,30.28,0,0,1,3.3,1.58,12.62,12.62,0,0,1,2.94,2.2,7.22,7.22,0,0,1,1.64,3.32A8.56,8.56,0,0,1,92,131Z"/><path class="cls-21" d="M91,131l-.47,0a6,6,0,0,0-.69-3.37,9.37,9.37,0,0,0-2.36-3,16.25,16.25,0,0,0-3.24-2.11c-1.15-.6-2.34-1.12-3.54-1.62,1.21.47,2.42,1,3.6,1.51a17.32,17.32,0,0,1,3.34,2,10.1,10.1,0,0,1,2.53,3A6.53,6.53,0,0,1,91,131Z"/><path class="cls-21" d="M89.82,130.89l-.49,0a6.43,6.43,0,0,0-1.39-3,9.72,9.72,0,0,0-2.8-2.34c-1.08-.6-2.16-1.21-3.27-1.77a19.37,19.37,0,0,0-3.43-1.42,20,20,0,0,1,3.48,1.31c1.13.53,2.23,1.1,3.34,1.67a10,10,0,0,1,3,2.31A6.84,6.84,0,0,1,89.82,130.89Z"/><path class="cls-21" d="M88,130.69l-.59-.07a10.82,10.82,0,0,0-2.13-2.5A16.09,16.09,0,0,0,82,126c-1.16-.6-2.35-1.15-3.55-1.67s-2.41-1-3.64-1.46c1.25.42,2.47.88,3.69,1.37s2.41,1,3.6,1.57a16.16,16.16,0,0,1,3.34,2.1A11.09,11.09,0,0,1,88,130.69Z"/><path class="cls-21" d="M92.66,130c0,.35,0,.69,0,1h-.53c0-.35,0-.69,0-1,.09-1.94.17-3.92.11-5.84l.42.28s-.05-.08.11-.32C92.82,126.06,92.74,128.06,92.66,130Z"/><path class="cls-22" d="M173.64,116,99,129s1.62,1.83,1.29,3.38c-.25,1.19-5.25,1.6-8,1.73-2.73-.13-7.72-.54-8-1.73-.32-1.55,1.41-3.14,1.41-3.14L11.13,116.21"/><path class="cls-23" d="M79,127.82c-5.29-.46-10.55-1.13-15.79-1.87s-10.48-1.58-15.7-2.45-10.42-1.86-15.61-2.92-10.37-2.18-15.52-3.52c5.3.45,10.56,1.12,15.8,1.86s10.47,1.58,15.7,2.46,10.42,1.86,15.61,2.92S73.88,126.48,79,127.82Z"/><path class="cls-23" d="M104.29,127.58c5.14-1.34,10.32-2.47,15.51-3.52s10.4-2,15.62-2.92,10.45-1.73,15.69-2.46,10.51-1.41,15.8-1.86c-5.14,1.33-10.32,2.46-15.51,3.51s-10.4,2-15.62,2.93-10.45,1.72-15.69,2.45S109.58,127.12,104.29,127.58Z"/><path class="cls-8" d="M86.2,78.94a1.05,1.05,0,0,0-1.15-.43,1,1,0,0,0-.82.8.74.74,0,0,0,0,.26.52.52,0,0,0,.37.61,1.41,1.41,0,0,0,1.58-.71A.51.51,0,0,0,86.2,78.94Z"/><path class="cls-8" d="M133.32,78.23a.53.53,0,0,0-.51.46h0l0,0h0l0,0a.53.53,0,0,0-.72.19.55.55,0,0,0,.19.72,1.12,1.12,0,0,0,1.7-.86A.53.53,0,0,0,133.32,78.23Z"/><path class="cls-8" d="M143.46,70.1a.54.54,0,0,0-.53.53v.23a.53.53,0,1,0,1,0v-.23A.53.53,0,0,0,143.46,70.1Z"/><path class="cls-8" d="M27.46,90.57a1,1,0,0,0-.9-.62.53.53,0,0,0-.53.52s0,0,0,0a.92.92,0,0,0,1.06,1.16C27.57,91.54,27.62,91,27.46,90.57Z"/><path class="cls-8" d="M50.9,87.43a.53.53,0,0,0-.25.55.5.5,0,0,0,.25.53.57.57,0,0,0,.69-.08.62.62,0,0,0,.19-.46A.6.6,0,0,0,50.9,87.43Z"/><path class="cls-8" d="M65.42,63a.5.5,0,0,0-.24.54.48.48,0,0,0,.25.53.59.59,0,0,0,.69-.07.61.61,0,0,0,.18-.46A.59.59,0,0,0,65.42,63Z"/><path class="cls-8" d="M163.75,89.65h-.06l-.13,0a.55.55,0,0,0-.53.53.61.61,0,0,0,.62.61.61.61,0,0,0,.62-.61A.52.52,0,0,0,163.75,89.65Z"/><path class="cls-8" d="M67.25,74.49a.53.53,0,0,0,0,1.05A.53.53,0,0,0,67.25,74.49Z"/><path class="cls-8" d="M50.23,63.59H50a.53.53,0,0,0-.53.52.54.54,0,0,0,.53.53h.23a.53.53,0,1,0,0-1Z"/><path class="cls-8" d="M118,70.85a.86.86,0,0,0-1.1-.58.55.55,0,0,0-.37.65.56.56,0,0,0,.56.39.51.51,0,0,0,.55.19A.53.53,0,0,0,118,70.85Z"/><path class="cls-8" d="M81.49,85.54a.51.51,0,0,0,0,.22.68.68,0,0,0,.66.65.65.65,0,0,0,.67-.56A.67.67,0,0,0,81.49,85.54Z"/><path class="cls-17" d="M23.32,100.45a.52.52,0,0,0-.53-.25.55.55,0,0,0-.55.25.61.61,0,1,0,1.08,0Z"/><path class="cls-17" d="M77.33,74.45A.77.77,0,0,0,76,75a.6.6,0,0,0,.29.47.54.54,0,0,0,.43.24A.78.78,0,0,0,77.33,74.45Z"/><path class="cls-17" d="M110.41,81a.57.57,0,0,0-.69-.08.49.49,0,0,0-.25.54.48.48,0,0,0,.25.53.59.59,0,0,0,.69-.07.66.66,0,0,0,.19-.46A.69.69,0,0,0,110.41,81Z"/><path class="cls-17" d="M145.79,82.66a.74.74,0,0,0-.85-.51.93.93,0,0,0-.65.57.54.54,0,0,0,.18.72l.13,0a.69.69,0,0,0,.13.11.75.75,0,0,0,1.08-.63A.81.81,0,0,0,145.79,82.66Z"/><path class="cls-17" d="M155.15,94.25a.53.53,0,0,0-.74,0l-.24.24a.52.52,0,0,0,.74.74l.24-.23A.54.54,0,0,0,155.15,94.25Z"/><path class="cls-17" d="M158.51,78.42a.54.54,0,0,0-.53.52v.23a.54.54,0,0,0,.53.53.53.53,0,0,0,.52-.53v-.23A.52.52,0,0,0,158.51,78.42Z"/><path class="cls-17" d="M42.51,88.5h-.24a.52.52,0,0,0-.52.52.53.53,0,0,0,.52.53h.24a.53.53,0,0,0,0-1Z"/><path class="cls-17" d="M91,88.42a.53.53,0,0,0-.74,0l-.24.23a.53.53,0,0,0,.75.75l.23-.24A.53.53,0,0,0,91,88.42Z"/><path class="cls-12" d="M88.87,83.66a.66.66,0,0,0-.5-.55.68.68,0,0,0-.75.31.47.47,0,0,0-.05.4.5.5,0,0,0,.15.39A.68.68,0,0,0,88.87,83.66Z"/><path class="cls-12" d="M34.49,97.54a.53.53,0,0,0-.74,0l-.46.48a.54.54,0,0,0,0,.74.53.53,0,0,0,.74,0l.46-.48A.52.52,0,0,0,34.49,97.54Z"/><path class="cls-12" d="M30.16,77.37h-.23a.53.53,0,1,0,0,1h.23a.53.53,0,0,0,.53-.53A.55.55,0,0,0,30.16,77.37Z"/><path class="cls-12" d="M129.57,81.73a.53.53,0,0,0,0,1A.53.53,0,0,0,129.57,81.73Z"/><path class="cls-12" d="M166,81a.53.53,0,0,0-.52.53v.23a.52.52,0,0,0,.52.52.54.54,0,0,0,.53-.52v-.23A.54.54,0,0,0,166,81Z"/><path class="cls-12" d="M33.22,57.75a.53.53,0,0,0-.52.52v.24a.53.53,0,0,0,1,0v-.24A.53.53,0,0,0,33.22,57.75Z"/><path class="cls-12" d="M140.24,55.8a.53.53,0,0,0,0,1.05A.53.53,0,0,0,140.24,55.8Z"/><path class="cls-12" d="M166.75,53.33h-.24a.52.52,0,0,0-.52.52.53.53,0,0,0,.52.53h.24a.53.53,0,0,0,0-1.05Z"/><path class="cls-12" d="M16,87.72a.54.54,0,0,0-.75,0l-.23.23a.54.54,0,0,0,0,.75.53.53,0,0,0,.74,0l.24-.24A.53.53,0,0,0,16,87.72Z"/></g></g></svg>