<svg width="25" height="25" viewBox="0 0 25 25" fill="none" xmlns="http://www.w3.org/2000/svg">
<circle cx="12.5" cy="12.5" r="11.5" stroke="#EAB686" stroke-width="2"/>
<path d="M17.9844 11.6172H13.3828V7.01562C13.3828 6.78149 13.2898 6.55694 13.1242 6.39138C12.9587 6.22582 12.7341 6.13281 12.5 6.13281C12.2659 6.13281 12.0413 6.22582 11.8758 6.39138C11.7102 6.55694 11.6172 6.78149 11.6172 7.01562V11.6172H7.01562C6.78149 11.6172 6.55694 11.7102 6.39138 11.8758C6.22582 12.0413 6.13281 12.2659 6.13281 12.5C6.13281 12.7341 6.22582 12.9587 6.39138 13.1242C6.55694 13.2898 6.78149 13.3828 7.01562 13.3828H11.6172V17.9844C11.6172 18.2185 11.7102 18.4431 11.8758 18.6086C12.0413 18.7742 12.2659 18.8672 12.5 18.8672C12.7341 18.8672 12.9587 18.7742 13.1242 18.6086C13.2898 18.4431 13.3828 18.2185 13.3828 17.9844V13.3828H17.9844C18.2185 13.3828 18.4431 13.2898 18.6086 13.1242C18.7742 12.9587 18.8672 12.7341 18.8672 12.5C18.8672 12.2659 18.7742 12.0413 18.6086 11.8758C18.4431 11.7102 18.2185 11.6172 17.9844 11.6172Z" fill="#EAB686" stroke="#EAB686" stroke-width="0.5"/>
</svg>
