<svg width="22" height="15" viewBox="0 0 22 15" fill="none" xmlns="http://www.w3.org/2000/svg">
<path d="M4.95 15C2.21719 15 0 12.8404 0 10.1786C0 8.07589 1.38187 6.28795 3.30687 5.62835C3.30344 5.53795 3.3 5.44754 3.3 5.35714C3.3 2.39732 5.76125 0 8.8 0C10.8384 0 12.6156 1.07812 13.5678 2.68527C14.0903 2.34375 14.7228 2.14286 15.4 2.14286C17.2219 2.14286 18.7 3.58259 18.7 5.35714C18.7 5.76562 18.6209 6.15402 18.48 6.51562C20.4875 6.91071 22 8.64174 22 10.7143C22 13.0815 20.0303 15 17.6 15H4.95ZM7.66563 7.73437C7.3425 8.04911 7.3425 8.55803 7.66563 8.86942C7.98875 9.1808 8.51125 9.18415 8.83094 8.86942L10.1716 7.56362V12.0536C10.1716 12.4989 10.5394 12.8571 10.9966 12.8571C11.4537 12.8571 11.8216 12.4989 11.8216 12.0536V7.56362L13.1622 8.86942C13.4853 9.18415 14.0078 9.18415 14.3275 8.86942C14.6472 8.55469 14.6506 8.04576 14.3275 7.73437L11.5775 5.0558C11.2544 4.74107 10.7319 4.74107 10.4122 5.0558L7.66219 7.73437H7.66563Z" fill="#E9B686"/>
</svg>
