<svg width="20" height="23" viewBox="0 0 20 23" fill="none" xmlns="http://www.w3.org/2000/svg">
<mask id="path-1-inside-1_487_30" fill="white">
<path fill-rule="evenodd" clip-rule="evenodd" d="M19.8216 4.14286C19.9363 4.40537 20 4.69528 20 5V7.14286H0V5C0 4.69528 0.0636786 4.40537 0.178448 4.14286C0.509259 3.38619 1.26454 2.85714 2.14286 2.85714H4.28571V1.42857C4.28571 0.638393 4.92411 0 5.71429 0C6.50446 0 7.14286 0.638393 7.14286 1.42857V2.85714H12.8571V1.42857C12.8571 0.638393 13.4955 0 14.2857 0C15.0759 0 15.7143 0.638393 15.7143 1.42857V2.85714H17.8571C18.7355 2.85714 19.4907 3.38619 19.8216 4.14286ZM20 8.57143H0V20.7143C0 21.8973 0.959821 22.8571 2.14286 22.8571H17.8571C19.0402 22.8571 20 21.8973 20 20.7143V8.57143ZM17 11.5714V19.8571H3V11.5714H17Z"/>
</mask>
<path fill-rule="evenodd" clip-rule="evenodd" d="M19.8216 4.14286C19.9363 4.40537 20 4.69528 20 5V7.14286H0V5C0 4.69528 0.0636786 4.40537 0.178448 4.14286C0.509259 3.38619 1.26454 2.85714 2.14286 2.85714H4.28571V1.42857C4.28571 0.638393 4.92411 0 5.71429 0C6.50446 0 7.14286 0.638393 7.14286 1.42857V2.85714H12.8571V1.42857C12.8571 0.638393 13.4955 0 14.2857 0C15.0759 0 15.7143 0.638393 15.7143 1.42857V2.85714H17.8571C18.7355 2.85714 19.4907 3.38619 19.8216 4.14286ZM20 8.57143H0V20.7143C0 21.8973 0.959821 22.8571 2.14286 22.8571H17.8571C19.0402 22.8571 20 21.8973 20 20.7143V8.57143ZM17 11.5714V19.8571H3V11.5714H17Z" fill="#E9B686"/>
<path d="M19.8216 4.14286L25.3191 1.73936L25.3191 1.73935L19.8216 4.14286ZM20 7.14286V13.1429H26V7.14286H20ZM0 7.14286H-6V13.1429H0V7.14286ZM0.178448 4.14286L-5.31911 1.73935L-5.31911 1.73935L0.178448 4.14286ZM4.28571 2.85714V8.85714H10.2857V2.85714H4.28571ZM7.14286 2.85714H1.14286V8.85714H7.14286V2.85714ZM12.8571 2.85714V8.85714H18.8571V2.85714H12.8571ZM15.7143 2.85714H9.71429V8.85714H15.7143V2.85714ZM20 8.57143H26V2.57143H20V8.57143ZM0 8.57143V2.57143H-6V8.57143H0ZM17 11.5714H23V5.57143H17V11.5714ZM17 19.8571V25.8571H23V19.8571H17ZM3 19.8571H-3V25.8571H3V19.8571ZM3 11.5714V5.57143H-3V11.5714H3ZM26 5C26 3.85214 25.7588 2.74513 25.3191 1.73936L14.324 6.54635C14.1138 6.06562 14 5.53842 14 5H26ZM-5.31911 1.73935C-5.75883 2.74512 -6 3.85214 -6 5H6C6 5.53842 5.88619 6.06562 5.67601 6.54636L-5.31911 1.73935ZM2.14286 -3.14286C-1.20618 -3.14286 -4.06825 -1.12174 -5.31911 1.73935L5.67601 6.54637C5.08677 7.89413 3.73526 8.85714 2.14286 8.85714V-3.14286ZM5.71429 -6C1.6104 -6 -1.71429 -2.67532 -1.71429 1.42857H10.2857C10.2857 3.9521 8.23781 6 5.71429 6V-6ZM13.1429 1.42857C13.1429 -2.67532 9.81817 -6 5.71429 -6V6C3.19076 6 1.14286 3.9521 1.14286 1.42857H13.1429ZM14.2857 -6C10.1818 -6 6.85714 -2.67532 6.85714 1.42857H18.8571C18.8571 3.9521 16.8092 6 14.2857 6V-6ZM21.7143 1.42857C21.7143 -2.67531 18.3896 -6 14.2857 -6V6C11.7622 6 9.71429 3.9521 9.71429 1.42857H21.7143ZM25.3191 1.73935C24.0683 -1.12174 21.2062 -3.14286 17.8571 -3.14286V8.85714C16.2647 8.85714 14.9132 7.89413 14.324 6.54637L25.3191 1.73935ZM-6 20.7143C-6 25.211 -2.35389 28.8571 2.14286 28.8571V16.8571C4.27353 16.8571 6 18.5836 6 20.7143H-6ZM2.14286 28.8571H17.8571V16.8571H2.14286V28.8571ZM17.8571 28.8571C22.3539 28.8571 26 25.211 26 20.7143H14C14 18.5836 15.7265 16.8571 17.8571 16.8571V28.8571ZM11 11.5714V19.8571H23V11.5714H11ZM17 13.8571H3V25.8571H17V13.8571ZM9 19.8571V11.5714H-3V19.8571H9ZM3 17.5714H17V5.57143H3V17.5714ZM26 7.14286V5H14V7.14286H26ZM0 13.1429H20V1.14286H0V13.1429ZM-6 5V7.14286H6V5H-6ZM4.28571 -3.14286H2.14286V8.85714H4.28571V-3.14286ZM-1.71429 1.42857V2.85714H10.2857V1.42857H-1.71429ZM13.1429 2.85714V1.42857H1.14286V2.85714H13.1429ZM12.8571 -3.14286H7.14286V8.85714H12.8571V-3.14286ZM6.85714 1.42857V2.85714H18.8571V1.42857H6.85714ZM21.7143 2.85714V1.42857H9.71429V2.85714H21.7143ZM17.8571 -3.14286H15.7143V8.85714H17.8571V-3.14286ZM26 20.7143V8.57143H14V20.7143H26ZM20 2.57143H0V14.5714H20V2.57143ZM-6 8.57143V20.7143H6V8.57143H-6Z" fill="#EAB686" mask="url(#path-1-inside-1_487_30)"/>
</svg>
