<svg width="14" height="7" viewBox="0 0 14 7" fill="none" xmlns="http://www.w3.org/2000/svg">
<path d="M11.1189 6.74107L13.7437 4.11761C14.0854 3.77601 14.0854 3.22126 13.7437 2.87966L11.1189 0.256198C10.7772 -0.0853992 10.2221 -0.0853992 9.88038 0.256198C9.53862 0.597794 9.53862 1.15255 9.88038 1.49414L11.0123 2.62551H2.9877L4.11962 1.49414C4.46138 1.15255 4.46138 0.597794 4.11962 0.256198C3.77785 -0.0853992 3.22283 -0.0853992 2.88107 0.256198L0.256323 2.87966C-0.0854409 3.22126 -0.0854409 3.77601 0.256323 4.11761L2.88107 6.74107C3.22283 7.08267 3.77785 7.08267 4.11962 6.74107C4.46138 6.39947 4.46138 5.84472 4.11962 5.50312L2.99043 4.37449H11.015L9.88312 5.50586C9.54135 5.84745 9.54135 6.40221 9.88312 6.7438C10.2249 7.0854 10.7799 7.0854 11.1217 6.7438L11.1189 6.74107Z" fill="#FF8594"/>
</svg>
