<svg width="28" height="22" viewBox="0 0 28 22" fill="none" xmlns="http://www.w3.org/2000/svg">
<path d="M4.49637 10.4999C5.69789 10.4999 6.67191 9.45525 6.67191 8.16659C6.67191 6.87793 5.69789 5.83325 4.49637 5.83325C3.29484 5.83325 2.3208 6.87793 2.3208 8.16659C2.3208 9.45525 3.29484 10.4999 4.49637 10.4999Z" stroke="#EAB686" stroke-width="2" stroke-miterlimit="10"/>
<path d="M6.59428 19.6667H2.16548C1.46619 19.6667 1 19.0833 1 18.3333V16C1 14.1667 2.32087 12.75 4.03023 12.75H6.74968" stroke="#EAB686" stroke-width="2" stroke-miterlimit="10"/>
<path d="M13.8201 8.33333C15.7083 8.33333 17.2388 6.69172 17.2388 4.66667C17.2388 2.64163 15.7083 1 13.8201 1C11.932 1 10.4014 2.64163 10.4014 4.66667C10.4014 6.69172 11.932 8.33333 13.8201 8.33333Z" stroke="#EAB686" stroke-width="2" stroke-miterlimit="10"/>
<path d="M18.8707 21H8.45906C7.37129 21 6.5166 20.0834 6.5166 18.9167V15.3334C6.5166 12.5 8.76986 10.1667 11.4893 10.1667H15.9181C18.6376 10.1667 20.8908 12.5 20.8908 15.3334V18.9167C20.8131 20.0834 19.9584 21 18.8707 21Z" stroke="#EAB686" stroke-width="2" stroke-miterlimit="10"/>
<path d="M22.6778 10.4999C23.8793 10.4999 24.8533 9.45525 24.8533 8.16659C24.8533 6.87793 23.8793 5.83325 22.6778 5.83325C21.4762 5.83325 20.5022 6.87793 20.5022 8.16659C20.5022 9.45525 21.4762 10.4999 22.6778 10.4999Z" stroke="#EAB686" stroke-width="2" stroke-miterlimit="10"/>
<path d="M20.58 19.6667H25.0088C25.7081 19.6667 26.1742 19.0833 26.1742 18.3333V16C26.1742 14.1667 24.8534 12.75 23.144 12.75H20.4246" stroke="#EAB686" stroke-width="2" stroke-miterlimit="10"/>
</svg>
