<svg width="12" height="12" viewBox="0 0 12 12" fill="none" xmlns="http://www.w3.org/2000/svg">
<path d="M4.42857 9.09375C4.42857 9.28281 4.25179 9.4375 4.03571 9.4375C3.81964 9.4375 3.64286 9.28281 3.64286 9.09375V4.625C3.64286 4.43594 3.81964 4.28125 4.03571 4.28125C4.25179 4.28125 4.42857 4.43594 4.42857 4.625V9.09375ZM6.39286 9.09375C6.39286 9.28281 6.21607 9.4375 6 9.4375C5.78393 9.4375 5.60714 9.28281 5.60714 9.09375V4.625C5.60714 4.43594 5.78393 4.28125 6 4.28125C6.21607 4.28125 6.39286 4.43594 6.39286 4.625V9.09375ZM8.35714 9.09375C8.35714 9.28281 8.18036 9.4375 7.96429 9.4375C7.74821 9.4375 7.57143 9.28281 7.57143 9.09375V4.625C7.57143 4.43594 7.74821 4.28125 7.96429 4.28125C8.18036 4.28125 8.35714 4.43594 8.35714 4.625V9.09375ZM8.29576 1.03582L9.19688 2.21875H10.9107C11.2373 2.21875 11.5 2.44971 11.5 2.73438C11.5 3.02012 11.2373 3.25 10.9107 3.25H10.7143V9.78125C10.7143 10.7309 9.83527 11.5 8.75 11.5H3.25C2.16522 11.5 1.28571 10.7309 1.28571 9.78125V3.25H1.08929C0.763951 3.25 0.5 3.02012 0.5 2.73438C0.5 2.44971 0.763951 2.21875 1.08929 2.21875H2.80362L3.70424 1.03582C3.9596 0.701029 4.38929 0.5 4.84844 0.5H7.15156C7.61071 0.5 8.0404 0.701051 8.29576 1.03582ZM4.21987 2.21875H7.78013L7.31362 1.60773C7.27679 1.56004 7.2154 1.53125 7.15156 1.53125H4.84844C4.7846 1.53125 4.70112 1.56004 4.68638 1.60773L4.21987 2.21875ZM2.46429 9.78125C2.46429 10.1615 2.81614 10.4688 3.25 10.4688H8.75C9.1846 10.4688 9.53571 10.1615 9.53571 9.78125V3.25H2.46429V9.78125Z" fill="white"/>
</svg>
