<svg width="11" height="11" viewBox="0 0 11 11" fill="none" xmlns="http://www.w3.org/2000/svg">
<path d="M5.49549 0C2.45968 0 0 2.45968 0 5.49549C0 8.53131 2.45968 10.991 5.49549 10.991C8.53131 10.991 10.991 8.53131 10.991 5.49549C10.991 2.45968 8.53131 0 5.49549 0ZM5.49549 9.92734C3.05133 9.92734 1.06364 7.93965 1.06364 5.49549C1.06364 3.05133 3.05133 1.06364 5.49549 1.06364C7.93965 1.06364 9.92734 3.05133 9.92734 5.49549C9.92734 7.93965 7.93965 9.92734 5.49549 9.92734ZM7.83551 6.57243C7.26158 6.75635 6.40845 6.86272 5.49549 6.86272C4.58253 6.86272 3.73162 6.75635 3.15548 6.57243C2.93831 6.50374 2.72559 6.68987 2.76326 6.91147C2.93831 7.95517 4.34321 8.6842 5.49549 8.6842C6.64777 8.6842 8.05045 7.95517 8.22772 6.91147C8.26318 6.6943 8.0571 6.50374 7.83551 6.57243ZM2.60814 4.95702C2.6857 4.9814 2.77212 4.94594 2.81422 4.87503L3.02474 4.49832C3.19536 4.19474 3.45019 4.01969 3.72275 4.01969C3.99531 4.01969 4.25014 4.19474 4.42077 4.49832L4.63128 4.87503C4.67781 4.95702 4.76867 4.97918 4.83736 4.95702C4.91713 4.93265 4.97032 4.8573 4.96367 4.7731C4.89054 3.8402 4.25014 3.19093 3.72275 3.19093C3.19536 3.19093 2.55496 3.8402 2.48183 4.7731C2.47519 4.85509 2.52837 4.93265 2.60814 4.95702V4.95702ZM6.15362 4.95702C6.23118 4.9814 6.3176 4.94594 6.3597 4.87503L6.57021 4.49832C6.74084 4.19474 6.99567 4.01969 7.26823 4.01969C7.54079 4.01969 7.79562 4.19474 7.96625 4.49832L8.17676 4.87503C8.22329 4.95702 8.31414 4.97918 8.38284 4.95702C8.46261 4.93265 8.51579 4.8573 8.50915 4.7731C8.43602 3.8402 7.79562 3.19093 7.26823 3.19093C6.74084 3.19093 6.10044 3.8402 6.02731 4.7731C6.02066 4.85509 6.07385 4.93265 6.15362 4.95702Z" fill="#ADADAD"/>
</svg>
