<svg width="24" height="22" viewBox="0 0 24 22" fill="none" xmlns="http://www.w3.org/2000/svg">
<path d="M22.8328 10.8721L22.8271 10.9252V10.9785C22.8271 11.2191 22.6349 11.3578 22.5029 11.3578H21.1787H20.1745L20.1787 12.362L20.2077 19.2414C20.2077 19.242 20.2077 19.2425 20.2077 19.2431C20.2076 19.3121 20.2026 19.3901 20.1927 19.483L20.187 19.5361V19.5895V20.2812C20.187 20.7144 19.8588 21 19.5318 21H18.8697L18.8414 21L18.825 20.9997C18.8238 20.9997 18.8229 20.9997 18.8221 20.9997L18.7432 20.9922L18.6591 20.9984C18.6443 20.9995 18.6234 21 18.5593 21H17.2144H16.2213C15.8942 21 15.5661 20.7144 15.5661 20.2812V19.25V16.5C15.5661 15.223 14.5618 14.125 13.2419 14.125H10.5935C9.27361 14.125 8.26931 15.223 8.26931 16.5V19.25V20.2812C8.26931 20.7144 7.94115 21 7.61407 21H6.62093H5.30089C5.27917 21 5.25164 20.9985 5.18374 20.9938L5.10604 20.9884L5.02845 20.9951C5.00183 20.9974 4.98772 20.9986 4.97542 20.9994C4.96886 20.9998 4.96546 21 4.96449 21H4.30361C3.97653 21 3.64837 20.7144 3.64837 20.2812V15.4688L3.64842 15.4455L3.6485 15.4393L3.65251 15.4018V15.3484V12.3578V11.3578H2.65251H1.32419C1.23003 11.3578 1.1575 11.3228 1.10382 11.2669C1.04892 11.2098 1 11.115 1 10.9785C1 10.8447 1.02983 10.7567 1.11555 10.6609L11.6949 1.08515L11.7204 1.06213L11.7441 1.03742C11.7578 1.02324 11.7654 1.01864 11.7666 1.01793L11.7666 1.01792C11.7679 1.01714 11.7701 1.0158 11.7765 1.01383C11.7934 1.00855 11.8341 1 11.9342 1C11.9834 1 12.0343 1.00771 12.0775 1.02162C12.1137 1.03328 12.1345 1.04595 12.1446 1.05353L22.6977 10.6859L22.6994 10.6874C22.7878 10.7677 22.8185 10.8217 22.8277 10.8421C22.8321 10.8518 22.8328 10.8563 22.833 10.8573C22.8331 10.8581 22.8338 10.8622 22.8328 10.8721Z" fill="#EAB686" stroke="#EAB686" stroke-width="2"/>
</svg>
