<svg width="26" height="20" viewBox="0 0 26 20" fill="none" xmlns="http://www.w3.org/2000/svg">
<path d="M8.13949 0C12.6358 0 16.279 2.94757 16.279 6.58341C16.279 10.2193 12.6358 13.1668 8.13949 13.1668C7.40772 13.1668 6.69943 13.0808 6.02244 12.9349C4.825 13.6456 3.09653 14.3638 0.976348 14.3638C0.585809 14.3638 0.232054 14.1431 0.0789687 13.799C-0.0741946 13.4548 -0.000289589 13.0583 0.263712 12.789C0.284099 12.7741 1.1497 11.8726 1.78951 10.6943C0.672291 9.56839 0 8.13949 0 6.58341C0 2.94757 3.64438 0 8.13949 0ZM6.44115 11.1507C7.01248 11.3078 7.58381 11.3713 8.13949 11.3713C11.5909 11.3713 14.4006 9.22426 14.4006 6.58341C14.4006 3.94257 11.5909 1.79548 8.13949 1.79548C4.68803 1.79548 1.87834 3.94257 1.87834 6.58341C1.87834 7.90009 2.57137 8.87264 3.15288 9.45991L4.07366 10.3913L3.45576 11.5247C3.31606 11.7491 3.15914 12.0409 2.99557 12.2878C3.6886 12.097 4.37106 11.8015 5.03631 11.3751L5.68982 11.0197L6.44115 11.1507ZM17.2808 4.79542C21.601 4.95252 25.0446 7.8365 25.0446 11.3713C25.0446 12.9274 24.3715 14.3563 23.2562 15.4822C23.8941 16.6605 24.7589 17.562 24.7824 17.577C25.0446 17.8463 25.1189 18.2428 24.9311 18.5869C24.8137 18.931 24.4576 19.1517 24.0663 19.1517C21.9492 19.1517 20.2196 18.4336 19.0221 17.7228C18.3452 17.8687 17.6369 17.9548 16.9051 17.9548C13.6963 17.9548 10.9218 16.451 9.59521 14.2703C10.2722 14.1843 10.9218 14.0384 11.5401 13.8364C12.6358 15.2279 14.6315 16.1593 16.9051 16.1593C17.4608 16.1593 18.0321 16.0957 18.6034 15.9386L19.3548 15.8077L20.0083 16.163C20.6735 16.5894 21.3544 16.885 22.051 17.0757C21.8866 16.8288 21.7301 16.5371 21.5892 16.3126L20.9709 15.1793L21.8905 14.2478C22.4736 13.6643 23.1662 12.688 23.1662 11.3713C23.1662 8.89135 20.6892 6.84899 17.496 6.60586L17.5312 6.58341C17.5312 5.96622 17.4451 5.36772 17.2808 4.79542Z" fill="#E9B686"/>
</svg>
